<?xml version="1.0" encoding="utf-8"?>
<svg viewBox="0 0 500 500" xmlns="http://www.w3.org/2000/svg">
  <defs>
    <linearGradient gradientUnits="userSpaceOnUse" id="color-0">
      <stop style="stop-color: #7d5a50;"/>
    </linearGradient>
    <linearGradient gradientUnits="userSpaceOnUse" id="color-3">
      <stop style="stop-color: #fcdec0;"/>
    </linearGradient>
  </defs>
  <g transform="matrix(14.776988, 0, 0, 13.839551, 52.200512, 17.959347)" style="">
    <g>
      <path d="M17,12c-2.76,0-5,2.24-5,5s2.24,5,5,5c2.76,0,5-2.24,5-5S19.76,12,17,12z M18.65,19.35l-2.15-2.15V14h1v2.79l1.85,1.85 L18.65,19.35z M18,3h-3.18C14.4,1.84,13.3,1,12,1S9.6,1.84,9.18,3H6C4.9,3,4,3.9,4,5v15c0,1.1,0.9,2,2,2h6.11 c-0.59-0.57-1.07-1.25-1.42-2H6V5h2v3h8V5h2v5.08c0.71,0.1,1.38,0.31,2,0.6V5C20,3.9,19.1,3,18,3z M12,5c-0.55,0-1-0.45-1-1 c0-0.55,0.45-1,1-1c0.55,0,1,0.45,1,1C13,4.55,12.55,5,12,5z" style="fill: url(#color-0); stroke: url(#color-3);"/>
    </g>
  </g>
  <path d="M 154.253 395.854 Q 154.357 396.27 154.305 396.92 Q 154.253 397.571 154.201 398.143 Q 154.201 398.82 154.149 399.106 Q 154.096 399.392 153.992 399.652 Q 153.94 399.912 153.875 400.199 Q 153.81 400.485 153.732 400.771 Q 153.654 401.057 153.589 401.37 Q 153.524 401.682 153.472 401.994 Q 153.472 402.176 153.472 402.345 Q 153.472 402.514 153.446 402.696 Q 153.42 402.879 153.42 403.048 Q 153.42 403.217 153.42 403.399 Q 153.42 403.607 153.407 403.841 Q 153.394 404.075 153.368 404.336 Q 153.342 404.83 153.524 405.272 Q 153.654 405.585 153.94 405.975 Q 154.201 406.339 154.357 406.781 Q 154.773 407.042 154.747 407.12 Q 154.721 407.172 154.773 407.302 Q 154.955 407.692 155.345 407.822 Q 155.84 408.134 156.62 408.082 Q 157.427 408.03 157.999 408.186 Q 158.962 408.03 159.664 407.614 Q 159.769 407.562 159.886 407.51 Q 160.003 407.458 160.107 407.406 Q 160.341 407.276 160.497 407.094 Q 160.679 406.755 160.783 406.469 Q 160.887 406.131 161.069 405.741 Q 161.226 405.376 161.382 404.752 Q 161.538 404.127 161.59 403.763 Q 161.876 403.269 162.097 402.749 Q 162.318 402.228 162.5 401.682 L 163.203 399.548 Q 163.411 398.924 163.619 398.377 Q 163.827 397.831 164.088 397.259 Q 164.296 396.686 164.504 396.14 Q 164.712 395.593 165.076 395.125 Q 165.232 394.292 165.545 393.668 L 166.169 392.419 Q 166.533 391.587 166.95 390.858 Q 167.184 390.468 167.405 390.09 Q 167.626 389.713 167.808 389.349 Q 168.016 388.985 168.225 388.62 Q 168.433 388.256 168.667 387.892 Q 168.979 387.059 169.525 386.201 Q 170.02 385.394 170.332 384.51 Q 170.618 383.755 170.8 383.105 Q 171.009 382.428 171.425 381.856 Q 171.633 381.439 171.802 381.049 Q 171.971 380.659 172.101 380.321 Q 172.231 379.956 172.401 379.618 Q 172.57 379.28 172.778 378.942 Q 172.83 378.681 172.908 378.473 Q 172.986 378.265 173.09 378.005 Q 172.648 378.135 172.309 378.421 Q 171.971 378.733 171.425 378.889 Q 171.009 379.15 170.54 379.488 Q 170.072 379.826 169.76 380.19 Q 169.604 380.815 169.447 380.971 Q 169.343 381.075 169.135 381.335 Q 168.927 381.361 168.563 381.465 Q 168.199 381.569 167.99 381.595 Q 167.678 381.465 167.6 381.283 Q 167.522 381.075 167.366 380.815 Q 167.106 380.373 167.236 380.086 Q 167.366 379.8 167.47 379.618 Q 167.548 379.514 167.704 379.358 Q 167.86 379.202 167.886 379.098 Q 168.589 378.421 169.291 377.953 Q 170.046 377.432 170.696 376.86 Q 170.852 376.704 171.009 376.548 Q 171.165 376.392 171.321 376.21 Q 171.477 376.027 171.633 375.884 Q 171.789 375.741 171.945 375.611 L 173.35 374.518 Q 174.313 373.842 174.742 373.282 Q 175.172 372.723 175.692 372.333 Q 176.212 371.943 177.409 371.812 Q 177.513 371.786 177.604 371.76 Q 177.695 371.734 177.773 371.708 Q 177.982 371.656 178.19 371.656 Q 178.502 371.604 178.502 371.656 Q 178.502 371.734 178.866 371.604 Q 179.048 371.578 179.308 371.474 L 179.751 371.292 Q 179.959 371.214 180.271 371.162 Q 180.609 371.11 180.739 371.032 Q 180.896 371.006 181.078 371.032 Q 181.182 371.058 181.273 371.084 Q 181.364 371.11 181.468 371.136 Q 182.092 371.63 181.845 372.476 Q 181.598 373.322 181.208 373.998 Q 181.052 374.31 180.818 374.622 Q 180.583 374.935 180.323 375.091 L 179.465 376.236 Q 179.256 376.522 179.035 376.821 Q 178.814 377.12 178.606 377.432 Q 178.398 377.719 178.216 378.031 Q 178.034 378.343 177.851 378.681 Q 177.669 379.02 177.487 379.332 Q 177.305 379.644 177.097 379.93 Q 176.681 380.555 176.316 381.179 Q 175.952 381.804 175.588 382.48 Q 175.172 383.365 174.625 384.171 Q 174.105 384.926 173.662 385.967 Q 173.532 386.279 173.428 386.591 Q 173.324 386.903 173.22 387.215 Q 173.116 387.528 173.012 387.853 Q 172.908 388.178 172.778 388.516 Q 172.674 388.646 172.596 388.855 Q 172.518 389.063 172.414 389.193 Q 172.335 389.297 172.283 389.557 Q 172.257 389.713 172.101 389.817 Q 171.919 390.312 171.711 390.767 Q 171.503 391.222 171.295 391.665 Q 170.852 392.549 170.592 393.564 Q 170.462 393.694 170.436 393.85 Q 170.41 394.006 170.28 394.136 Q 170.332 394.188 170.28 394.631 Q 170.228 395.073 170.124 395.281 Q 169.786 395.932 169.63 396.166 Q 169.525 396.322 169.447 396.491 Q 169.369 396.66 169.291 396.842 Q 168.745 397.883 168.251 399.132 Q 167.782 400.355 167.21 401.526 Q 166.898 402.046 166.663 402.592 Q 166.429 403.139 166.169 403.763 Q 166.169 404.101 166.013 404.388 Q 165.883 404.622 165.753 404.96 Q 165.519 405.506 165.467 405.845 Q 165.389 406.261 165.128 406.677 L 164.816 407.068 Q 164.712 407.198 164.556 407.458 Q 164.478 407.588 164.426 407.9 Q 164.374 408.212 164.296 408.342 Q 164.192 408.655 163.931 408.967 Q 163.671 409.279 163.411 409.539 Q 163.125 409.826 163.021 410.06 Q 162.917 410.294 162.631 410.58 Q 162.292 410.736 162.058 410.918 Q 161.85 411.074 161.486 411.205 Q 160.783 411.569 160.185 411.725 Q 159.664 411.855 159.534 411.907 Q 159.352 411.985 159.092 411.985 Q 158.78 411.985 158.52 411.933 Q 158.259 411.881 157.947 411.881 Q 157.505 412.037 157.115 411.933 L 156.282 411.725 L 155.84 411.725 Q 155.658 411.725 155.397 411.673 Q 154.591 411.517 153.94 410.97 Q 153.29 410.45 152.483 410.32 Q 151.286 409.539 150.48 408.238 Q 149.673 406.937 149.101 405.324 Q 148.841 404.414 148.997 403.373 Q 149.075 402.853 149.127 402.345 Q 149.179 401.838 149.205 401.317 Q 149.335 400.641 149.361 400.069 Q 149.387 399.574 149.569 398.924 Q 149.673 398.56 149.803 398.221 Q 149.934 397.883 150.038 397.623 Q 150.22 397.337 150.506 397.05 Q 150.792 396.764 150.974 396.426 Q 151.312 396.218 151.807 396.244 Q 152.327 396.296 152.848 396.166 Q 153.03 396.114 153.212 396.049 Q 153.394 395.984 153.576 395.88 Q 153.914 395.697 154.253 395.854 Z" transform="matrix(2.263411, 0, 0, 1.516993, -273.848816, -208.921875)" style="fill: rgb(125, 90, 80); line-height: 85.2575px; paint-order: stroke; stroke: url(#color-3); stroke-width: 7.93566px; white-space: pre;"/>
  <path d="M 199.778 393.98 Q 200.038 394.006 200.116 394.188 Q 200.194 394.345 200.402 394.345 Q 200.506 394.839 200.194 395.034 Q 199.882 395.229 199.986 395.645 Q 199.518 395.958 198.841 396.036 Q 198.139 396.114 197.8 396.582 Q 196.89 397.024 195.901 397.129 Q 195.407 397.181 194.873 397.272 Q 194.34 397.363 193.794 397.467 Q 193.221 397.857 193.091 397.883 Q 192.909 397.909 192.701 398.039 Q 192.154 397.831 191.608 397.831 Q 191.062 397.831 190.463 397.675 Q 190.177 397.779 189.865 397.779 Q 189.552 397.779 189.266 397.883 Q 189.058 398.351 189.058 398.82 Q 189.058 399.314 188.902 399.756 L 188.59 400.381 L 188.512 400.875 Q 188.46 401.187 188.382 401.37 Q 188.278 401.526 188.147 401.734 Q 188.017 401.942 188.017 402.202 Q 187.653 402.67 187.497 403.165 Q 187.341 403.737 186.925 404.075 Q 186.769 404.622 186.43 404.908 Q 186.092 405.22 185.78 405.637 Q 185.207 406.417 184.765 406.99 Q 184.323 407.562 183.594 407.978 Q 183.334 408.395 182.97 408.551 Q 182.71 408.811 182.554 409.071 L 181.513 409.695 Q 180.888 410.086 180.316 410.216 Q 179.431 410.424 178.599 410.164 Q 177.766 409.904 177.038 409.435 Q 176.543 409.487 176.283 409.253 Q 176.023 409.045 175.581 408.915 Q 175.008 408.395 174.332 407.978 Q 173.629 407.536 173.343 406.833 L 173.109 405.689 Q 173.005 405.168 172.875 404.648 Q 172.771 404.206 172.849 403.659 Q 172.927 403.191 172.875 402.618 Q 172.875 402.332 172.875 402.085 Q 172.875 401.838 172.849 401.656 Q 172.823 401.265 173.083 400.693 Q 173.239 400.355 173.343 400.069 Q 173.447 399.782 173.499 399.574 Q 173.551 399.366 173.603 399.171 Q 173.655 398.976 173.707 398.82 Q 173.785 398.69 173.863 398.547 Q 173.941 398.403 174.019 398.247 Q 174.097 398.091 174.189 397.948 Q 174.28 397.805 174.384 397.675 Q 174.696 397.207 175.112 396.738 Q 175.528 396.27 175.945 395.854 Q 176.231 395.463 176.517 395.177 Q 176.986 394.709 177.402 394.397 Q 177.818 394.084 178.338 393.564 Q 178.443 393.408 178.599 393.304 L 178.911 393.096 Q 179.431 392.783 179.874 392.575 Q 180.316 392.367 180.888 392.107 Q 181.383 391.873 181.695 391.821 Q 181.903 391.769 182.124 391.73 Q 182.345 391.691 182.606 391.639 L 183.23 391.639 Q 183.516 391.639 183.75 391.535 Q 183.594 391.118 184.115 390.962 Q 184.635 390.806 184.895 390.858 Q 185.416 390.858 185.728 391.092 Q 186.04 391.326 186.3 391.639 Q 186.821 392.003 187.445 392.731 Q 187.575 392.861 187.705 392.887 Q 187.835 392.913 187.965 393.044 Q 188.174 393.356 188.252 393.616 Q 188.33 393.928 188.59 394.188 Q 188.746 394.292 188.902 394.449 Q 189.058 394.605 189.11 394.865 Q 189.657 395.073 190.099 395.177 Q 190.333 395.281 190.645 395.229 Q 190.931 395.177 191.296 395.229 Q 191.53 395.255 191.764 395.359 Q 191.972 395.437 192.232 395.437 Q 192.623 395.411 193.091 395.229 Q 193.533 395.073 194.106 395.177 Q 194.886 395.359 195.745 395.021 Q 196.604 394.657 197.488 394.553 Q 197.748 394.553 197.852 394.527 Q 197.956 394.501 198.217 394.501 Q 198.477 394.292 198.893 394.188 Q 199.309 394.084 199.778 393.98 Z M 184.895 395.541 Q 184.375 395.073 184.297 394.943 Q 184.193 394.787 184.115 394.761 Q 183.88 394.527 183.594 394.501 Q 183.438 394.475 183.295 394.449 Q 183.152 394.423 183.022 394.397 Q 182.189 394.24 181.643 394.579 Q 181.383 394.761 181.109 394.917 Q 180.836 395.073 180.576 395.229 Q 179.744 395.75 179.119 396.53 Q 178.963 396.79 178.781 397.102 Q 178.599 397.415 178.495 397.779 Q 178.286 398.195 178.13 398.534 Q 177.974 398.872 177.87 399.34 Q 177.61 399.834 177.558 400.199 Q 177.532 400.381 177.506 400.524 Q 177.48 400.667 177.454 400.797 Q 177.428 401.057 177.376 401.33 Q 177.324 401.604 177.272 401.89 Q 177.142 402.54 177.142 402.879 Q 177.194 403.035 177.298 403.295 Q 177.402 403.555 177.506 403.659 Q 177.61 403.919 177.74 404.232 Q 177.87 404.544 177.974 404.7 Q 178.26 405.064 178.651 405.168 Q 178.859 405.22 179.093 405.285 Q 179.327 405.35 179.587 405.428 Q 180.16 405.741 180.368 405.689 Q 180.628 405.637 180.68 405.637 Q 181.383 405.506 181.877 405.064 Q 182.319 404.648 182.918 404.336 Q 183.126 404.023 183.347 403.685 Q 183.568 403.347 183.828 403.009 Q 184.089 402.644 184.31 402.293 Q 184.531 401.942 184.739 401.578 Q 184.869 401.422 184.999 401.109 Q 185.051 400.979 185.103 400.862 Q 185.155 400.745 185.207 400.641 Q 185.572 400.199 185.546 400.173 Q 185.52 400.147 185.572 400.017 Q 185.91 399.236 185.884 398.82 Q 185.858 398.403 185.884 397.987 Q 185.754 397.701 185.65 397.389 Q 185.546 397.076 185.442 396.738 Q 185.233 396.036 184.895 395.541 Z" transform="matrix(2.263411, 0, 0, 1.516993, -273.848816, -208.921875)" style="fill: rgb(125, 90, 80); line-height: 85.2575px; paint-order: stroke; stroke: url(#color-3); stroke-width: 7.93566px; white-space: pre;"/>
  <path d="M 206.805 408.655 L 206.493 407.51 Q 206.181 406.859 206.389 405.48 L 206.571 404.57 Q 206.623 404.388 206.662 404.101 Q 206.701 403.815 206.753 403.399 Q 206.805 403.009 206.87 402.605 Q 206.935 402.202 207.039 401.786 Q 207.143 401.37 207.208 400.953 Q 207.273 400.537 207.325 400.121 Q 206.935 400.719 206.571 401.344 Q 206.207 401.968 205.868 402.644 Q 205.218 403.919 204.255 404.856 Q 204.047 405.48 203.735 405.65 Q 203.423 405.819 203.11 405.975 Q 202.798 406.131 202.59 406.729 Q 202.33 406.99 202.096 407.276 Q 201.861 407.562 201.757 407.978 Q 201.497 408.082 201.237 408.395 Q 200.743 408.889 200.613 408.915 Q 200.482 408.941 200.352 409.071 Q 199.832 409.487 199.442 409.695 Q 199.051 409.904 198.531 409.956 Q 197.959 410.06 197.048 410.112 Q 196.606 410.138 196.241 410.164 Q 195.877 410.19 195.617 410.216 Q 195.279 409.956 195.097 409.904 Q 195.019 409.878 194.875 409.826 Q 194.732 409.774 194.524 409.695 Q 193.77 409.383 193.796 409.409 Q 193.77 409.383 193.705 409.357 Q 193.64 409.331 193.536 409.279 Q 193.119 408.967 192.963 408.785 Q 192.859 408.655 192.599 408.395 Q 191.74 407.068 191.61 404.96 Q 191.558 404.232 191.87 403.503 Q 192.183 402.775 192.443 402.202 Q 192.755 401.552 193.119 401.005 Q 193.327 400.693 193.496 400.407 Q 193.666 400.121 193.796 399.86 Q 194.108 399.236 193.913 399.041 Q 193.718 398.846 194.004 398.247 Q 194.134 397.831 194.316 397.519 L 194.784 396.686 Q 195.253 395.854 195.773 395.203 Q 196.241 394.631 196.554 393.668 Q 196.814 392.94 197.256 392.549 Q 197.698 392.159 198.323 391.847 Q 198.583 391.951 199.077 391.769 Q 199.572 391.587 199.832 391.378 Q 200.196 391.378 200.404 391.17 Q 200.977 391.066 201.003 391.17 Q 201.029 391.274 201.133 391.274 Q 201.237 391.3 201.419 391.274 Q 201.601 391.248 201.705 391.274 Q 201.887 391.821 201.966 391.951 Q 202.07 392.081 202.07 392.211 Q 202.07 392.367 202.044 392.627 Q 202.018 392.887 201.966 392.992 Q 201.679 393.382 201.627 393.486 L 201.549 393.668 Q 201.393 393.876 201.198 394.149 Q 201.003 394.423 200.769 394.787 L 199.936 396.01 Q 199.65 396.452 199.416 396.582 Q 199.13 396.738 198.947 397.155 Q 198.843 397.337 198.791 397.545 Q 198.765 397.727 198.635 397.935 Q 198.037 399.184 197.282 400.459 Q 196.892 401.109 196.541 401.747 Q 196.189 402.384 195.877 402.983 Q 195.851 403.191 195.799 403.386 Q 195.747 403.581 195.695 403.789 Q 195.565 404.232 195.565 404.544 Q 195.565 404.622 195.513 405.35 Q 195.461 406.079 195.565 406.209 Q 195.877 406.651 195.929 406.599 Q 195.981 406.547 196.033 406.625 Q 196.241 407.146 196.32 407.224 Q 196.398 407.302 196.658 407.406 Q 196.866 407.458 197.256 407.328 Q 197.646 407.198 197.855 407.094 Q 198.479 406.781 198.791 406.443 Q 199.103 406.105 199.416 405.741 Q 200.196 404.804 201.081 403.555 Q 201.966 402.306 202.746 401.37 Q 203.032 400.745 203.501 400.121 Q 203.995 399.444 204.255 398.924 L 204.984 397.519 Q 205.14 397.233 205.322 396.894 Q 205.504 396.556 205.712 396.166 Q 206.024 395.724 206.363 395.359 Q 206.701 394.995 206.857 394.292 Q 206.987 393.928 207.247 393.59 Q 207.377 393.408 207.494 393.265 Q 207.612 393.122 207.69 392.992 Q 208.08 392.627 208.184 392.419 Q 208.288 392.211 208.522 392.055 Q 209.095 391.899 209.407 391.821 Q 209.719 391.743 210.187 391.847 Q 210.604 391.587 211.072 391.587 Q 211.306 391.587 211.527 391.6 Q 211.749 391.613 211.957 391.639 Q 211.957 391.899 212.087 391.977 Q 212.217 392.055 212.217 392.263 Q 212.425 392.731 212.217 393.408 Q 211.983 394.162 211.957 394.761 Q 211.827 395.307 211.566 395.724 Q 211.28 396.192 211.124 396.738 Q 211.02 397.129 210.955 397.363 Q 210.89 397.597 210.864 397.675 L 210.708 398.247 Q 210.604 398.716 210.5 399.145 Q 210.396 399.574 210.291 399.991 Q 210.083 400.823 209.979 401.838 Q 209.979 402.098 209.901 402.384 Q 209.823 402.644 209.823 402.879 Q 209.823 403.139 209.849 403.503 Q 209.875 403.867 210.135 403.971 Q 210.422 404.075 210.63 403.919 Q 210.89 403.711 211.176 403.555 Q 211.358 403.425 211.696 403.087 Q 212.035 402.749 212.217 402.618 Q 212.477 402.358 212.789 402.202 Q 213.101 402.046 213.362 401.786 Q 213.778 401.422 214.181 401.044 Q 214.585 400.667 214.949 400.277 Q 215.729 399.47 216.588 398.976 Q 217.421 398.091 218.279 397.337 Q 219.138 396.582 220.231 396.062 Q 220.647 396.738 220.439 397.181 Q 220.231 397.623 219.918 398.039 Q 219.788 398.169 219.554 398.299 Q 219.268 398.455 219.138 398.56 L 218.878 398.82 Q 218.721 398.976 218.617 398.976 Q 218.617 399.184 218.487 399.314 L 218.253 399.548 Q 217.915 400.069 217.538 400.524 Q 217.16 400.979 216.744 401.396 Q 216.328 401.812 215.924 402.215 Q 215.521 402.618 215.131 403.035 Q 214.767 403.165 214.689 403.373 Q 214.611 403.633 214.35 403.815 Q 214.246 403.945 214.142 404.049 Q 214.038 404.154 213.934 404.258 Q 213.83 404.362 213.726 404.466 Q 213.622 404.57 213.518 404.7 Q 213.206 405.038 212.971 405.402 Q 212.737 405.741 212.321 406.053 Q 212.061 406.313 211.931 406.599 Q 211.827 406.859 211.54 407.146 Q 211.124 407.562 210.942 407.536 Q 210.786 407.51 210.656 408.03 Q 210.239 408.342 210.187 408.473 Q 210.161 408.577 210.031 408.551 Q 209.901 408.603 209.667 408.629 Q 209.407 408.655 209.407 408.759 Q 209.069 408.915 208.86 409.071 Q 208.652 409.253 208.366 409.279 Q 207.69 409.383 207.403 409.201 Q 207.117 409.019 206.805 408.655 Z" transform="matrix(2.263411, 0, 0, 1.516993, -273.848816, -208.921875)" style="fill: rgb(125, 90, 80); line-height: 85.2575px; paint-order: stroke; stroke: url(#color-3); stroke-width: 7.93566px; white-space: pre;"/>
  <path d="M 231.934 404.908 Q 232.143 404.622 232.247 404.518 Q 232.377 404.388 232.559 404.284 Q 233.209 402.905 234.263 402.098 Q 235.317 401.291 236.514 400.277 Q 236.774 400.277 236.956 400.095 Q 237.138 399.912 237.398 399.808 Q 237.71 399.522 237.997 399.34 Q 238.231 399.184 238.387 398.924 Q 238.985 398.638 239.506 398.143 Q 240.052 397.649 240.573 397.259 Q 240.989 397.155 241.457 397.363 Q 241.665 397.779 241.613 398.247 Q 241.561 398.716 241.093 398.768 Q 240.937 398.924 240.755 399.08 Q 240.573 399.236 240.312 399.288 Q 239.792 399.392 239.636 399.704 Q 239.61 400.199 239.506 400.303 Q 239.402 400.407 239.376 400.485 Q 238.803 401.448 238.101 402.137 Q 237.398 402.827 236.774 403.815 Q 236.488 403.997 236.305 404.388 Q 235.369 404.908 234.927 405.194 Q 234.484 405.48 234.12 405.897 Q 233.808 406.079 233.808 406.209 Q 233.808 406.313 233.704 406.417 Q 233.183 406.859 233.105 407.068 Q 233.027 407.276 232.871 407.406 Q 232.611 407.588 232.416 407.757 Q 232.221 407.926 232.09 408.056 Q 231.778 408.369 231.414 408.499 Q 230.972 408.863 230.113 409.37 Q 229.254 409.878 228.344 410.151 Q 227.433 410.424 226.835 410.164 L 226.47 409.878 Q 226.366 409.8 226.106 409.643 Q 225.768 409.227 225.352 408.941 Q 224.987 408.681 224.649 408.186 Q 224.259 407.64 224.155 407.068 Q 224.051 406.469 223.765 405.897 Q 223.634 404.544 223.973 403.659 Q 224.259 402.775 224.597 402.007 Q 224.935 401.239 225.352 400.589 Q 226.158 399.34 226.47 397.623 Q 225.898 397.05 225.82 396.556 Q 225.794 396.296 225.716 395.958 Q 225.638 395.619 225.534 395.177 Q 224.181 396.062 223.036 397.415 Q 221.891 398.768 221.007 400.173 L 220.382 401.317 Q 220.122 401.812 219.758 402.254 Q 219.498 402.514 219.498 402.592 Q 219.498 402.67 219.393 402.775 Q 219.185 403.035 219.055 403.217 Q 218.925 403.399 218.873 403.503 Q 218.821 403.607 218.769 403.698 Q 218.717 403.789 218.665 403.867 Q 218.509 404.075 218.405 404.18 Q 218.301 404.284 218.145 404.492 Q 217.416 405.532 216.818 406.443 L 215.595 408.29 Q 215.309 408.733 215.126 409.175 Q 214.944 409.643 214.606 410.008 Q 214.086 410.06 214.008 409.852 Q 213.93 409.643 214.034 409.487 Q 213.409 409.071 213.331 407.874 Q 213.253 406.677 213.565 405.949 Q 213.409 405.48 213.461 405.428 Q 213.513 405.376 213.513 405.272 Q 214.19 404.336 214.892 403.399 Q 215.595 402.462 216.375 401.63 Q 216.505 401.448 216.635 401.265 Q 216.766 401.083 216.87 400.901 Q 217.13 400.511 217.416 400.225 Q 217.858 399.47 218.483 398.664 Q 219.107 397.883 219.498 397.05 Q 219.784 396.764 219.888 396.478 Q 220.018 396.166 220.33 395.958 Q 220.512 395.645 220.655 395.346 Q 220.798 395.047 220.903 394.761 Q 221.059 394.266 221.475 393.772 Q 221.579 393.408 221.735 393.2 Q 221.891 392.992 222.151 392.731 Q 222.177 392.497 222.438 392.289 Q 222.698 392.081 222.828 391.847 Q 222.958 391.482 223.088 391.378 Q 223.244 391.248 223.244 391.014 Q 223.504 390.754 223.765 390.468 Q 224.025 390.182 224.233 389.765 Q 224.961 389.349 225.248 389.349 Q 225.534 389.349 225.69 389.089 Q 225.898 389.089 226.145 389.089 Q 226.392 389.089 226.679 389.063 Q 227.277 389.011 227.303 389.453 Q 227.329 389.557 227.303 389.713 Q 227.277 389.791 227.251 389.869 Q 227.225 389.947 227.199 390.025 Q 227.225 390.494 227.199 390.52 Q 227.147 390.572 227.147 390.598 Q 227.095 390.806 227.121 390.962 Q 227.147 391.092 227.147 391.43 Q 227.121 391.639 227.095 391.795 Q 227.069 391.951 227.043 392.081 Q 226.991 392.341 227.251 392.679 Q 227.381 392.861 227.563 392.966 Q 227.745 393.07 227.928 393.304 Q 228.058 393.434 228.11 393.616 Q 228.162 393.798 228.292 393.928 Q 228.396 394.058 228.604 394.188 Q 228.812 394.318 228.916 394.553 Q 229.202 394.761 229.098 394.813 Q 229.02 394.865 229.333 395.021 Q 229.931 395.776 230.217 396.634 Q 230.555 397.285 230.79 397.675 Q 231.05 398.091 230.79 398.507 Q 230.633 398.664 230.425 399.132 Q 230.191 399.366 230.009 399.652 Q 229.905 399.834 229.853 400.043 Q 229.827 400.225 229.697 400.381 Q 229.228 401.135 228.734 401.734 Q 228.24 402.332 227.875 403.035 Q 227.902 404.518 228.448 405.22 Q 229.072 405.949 229.228 405.949 Q 229.567 406.001 229.957 405.741 L 230.633 405.324 Q 230.738 405.272 230.829 405.22 Q 230.92 405.168 230.998 405.116 Q 231.154 405.012 231.362 404.96 Q 231.908 404.778 231.882 404.83 Q 231.856 404.908 231.934 404.908 Z" transform="matrix(2.263411, 0, 0, 1.516993, -273.848816, -208.921875)" style="fill: rgb(125, 90, 80); line-height: 85.2575px; paint-order: stroke; stroke: url(#color-3); stroke-width: 7.93566px; white-space: pre;"/>
  <path d="M 241.245 402.618 Q 241.661 402.358 241.922 401.942 Q 242.052 401.734 242.208 401.526 Q 242.364 401.317 242.546 401.109 Q 243.223 400.329 244.003 399.808 Q 244.367 399.262 244.914 399.002 Q 245.46 398.716 245.772 398.143 Q 245.85 398.039 245.954 397.831 Q 246.059 397.623 246.137 397.519 Q 247.125 396.14 248.27 395.229 Q 248.426 395.099 248.582 394.969 Q 248.738 394.839 248.869 394.709 Q 249.077 394.501 249.571 394.188 Q 249.805 394.058 250.039 393.889 Q 250.274 393.72 250.482 393.512 Q 250.898 393.096 251.444 392.887 Q 251.783 392.731 252.121 392.653 Q 252.277 392.601 252.446 392.562 Q 252.615 392.523 252.797 392.471 Q 253.162 392.367 253.448 392.289 Q 253.734 392.211 254.098 392.315 Q 254.931 392.653 255.347 393.72 Q 255.503 394.11 255.178 395.359 Q 254.853 396.608 254.411 397.948 Q 253.968 399.288 253.786 400.017 Q 253.682 400.407 253.734 400.459 Q 253.786 400.511 253.786 400.589 Q 253.682 400.849 253.63 401.057 Q 253.578 401.265 253.526 401.526 Q 253.422 401.942 253.37 402.644 Q 253.318 403.347 253.422 403.763 Q 253.942 403.737 254.02 403.659 Q 254.072 403.607 254.15 403.607 Q 254.358 403.555 254.489 403.581 Q 254.619 403.607 254.827 403.555 Q 255.894 403.269 256.752 402.41 Q 257.221 402.202 257.65 401.994 Q 258.079 401.786 258.469 401.578 Q 259.198 401.057 259.64 400.823 Q 260.083 400.589 260.967 400.173 Q 261.305 399.782 261.878 399.522 Q 262.398 399.288 262.893 398.872 Q 263.049 398.716 263.153 398.586 Q 263.309 398.377 263.465 398.507 Q 263.725 398.768 263.803 399.054 Q 263.881 399.34 263.829 399.444 Q 263.439 399.834 263.387 400.069 Q 263.335 400.303 263.257 400.381 Q 262.997 400.641 262.476 400.849 Q 262.034 401.031 261.93 401.187 Q 261.826 401.344 261.748 401.422 Q 261.592 401.578 261.462 401.656 Q 261.331 401.734 261.175 401.89 Q 261.071 402.046 260.889 402.072 L 260.551 402.15 Q 260.239 402.41 260.031 402.618 Q 259.822 402.827 259.562 403.087 Q 259.172 403.477 259.042 403.685 Q 258.938 403.867 258.469 404.18 L 257.429 404.804 Q 256.7 405.168 255.972 405.689 Q 255.243 406.209 254.515 406.729 Q 254.046 407.016 253.448 407.276 Q 252.901 407.51 252.433 407.822 Q 252.199 407.822 252.147 407.796 Q 252.069 407.744 251.861 407.874 Q 251.601 407.744 251.34 407.848 Q 251.054 407.978 250.82 407.874 Q 250.56 407.666 250.391 407.536 Q 250.222 407.406 250.117 407.354 Q 249.961 407.25 249.831 407.094 Q 249.727 406.833 249.753 406.521 Q 249.779 406.209 249.623 406.001 Q 249.623 404.856 249.701 403.815 Q 249.779 402.775 250.039 401.63 Q 250.091 401.265 250.3 400.368 Q 250.508 399.47 250.638 398.638 Q 250.768 397.805 250.56 397.675 Q 249.987 397.987 249.389 398.612 Q 249.103 398.924 248.817 399.184 Q 248.53 399.444 248.27 399.652 L 247.464 400.225 Q 247.281 400.355 247.073 400.498 Q 246.865 400.641 246.657 400.797 Q 246.293 401.057 246.033 401.317 Q 245.772 401.578 245.46 401.942 Q 245.278 402.124 245.109 402.293 Q 244.94 402.462 244.784 402.644 Q 244.471 402.983 244.055 403.295 Q 243.795 403.555 243.665 403.633 Q 243.535 403.711 243.327 403.919 L 242.832 404.414 Q 242.598 404.648 242.234 404.804 Q 241.401 405.923 240.374 406.964 Q 239.346 408.004 238.747 409.071 Q 238.123 409.591 237.42 409.982 Q 236.718 410.372 235.729 410.06 Q 235.209 409.748 235.053 409.539 Q 234.897 409.357 234.688 409.227 Q 234.74 408.655 234.793 408.134 Q 234.845 407.614 235.105 407.042 L 235.417 406.521 Q 235.677 406.079 235.755 405.48 Q 235.833 404.856 236.093 404.388 Q 236.406 403.867 236.484 403.529 Q 236.562 403.217 236.718 402.931 Q 236.848 402.618 237.004 402.436 Q 237.16 402.254 237.29 401.942 Q 237.42 401.656 237.655 401.344 Q 237.889 401.031 238.019 400.745 Q 238.331 399.626 238.851 398.455 Q 238.956 398.091 239.06 397.753 Q 239.164 397.415 239.32 397.102 Q 239.45 396.816 239.58 396.53 Q 239.71 396.244 239.84 395.984 Q 239.97 395.697 240.1 395.424 Q 240.23 395.151 240.361 394.865 Q 240.517 394.553 240.647 394.318 Q 240.777 394.084 240.985 393.824 Q 241.063 393.694 241.141 393.564 Q 241.219 393.434 241.271 393.304 Q 241.323 393.174 241.401 393.044 Q 241.479 392.913 241.557 392.783 Q 241.635 392.653 241.713 392.51 Q 241.792 392.367 241.844 392.185 Q 241.948 391.847 242.234 391.535 Q 242.416 391.326 242.559 391.131 Q 242.702 390.936 242.806 390.754 Q 242.988 390.416 243.483 390.286 Q 243.925 390.494 244.406 390.117 Q 244.888 389.739 245.2 390.182 Q 245.928 390.65 246.189 390.91 Q 246.501 391.196 246.605 391.482 Q 246.865 391.951 246.657 392.445 Q 246.449 392.94 245.928 393.304 Q 245.746 394.11 245.2 394.969 Q 244.94 395.359 244.706 395.737 Q 244.471 396.114 244.263 396.478 L 243.847 397.519 Q 243.535 398.247 243.197 398.976 Q 242.858 399.704 242.442 400.381 Q 242.104 401.083 241.935 401.291 Q 241.766 401.5 241.648 401.695 Q 241.531 401.89 241.245 402.618 Z" transform="matrix(2.263411, 0, 0, 1.516993, -273.848816, -208.921875)" style="fill: rgb(125, 90, 80); line-height: 85.2575px; paint-order: stroke; stroke: url(#color-3); stroke-width: 7.93566px; white-space: pre;"/>
  <path d="M 276.578 396.738 Q 277.098 396.868 277.332 397.102 Q 277.515 397.285 277.515 397.519 Q 277.098 398.091 277.02 398.273 Q 276.942 398.455 276.682 398.56 Q 276.344 399.08 275.966 399.535 Q 275.589 399.991 275.147 400.407 Q 274.34 401.187 273.56 402.202 Q 273.221 402.54 273.091 402.722 Q 272.961 402.905 272.623 403.243 Q 271.999 403.685 271.582 404.154 Q 271.348 404.414 271.101 404.635 Q 270.854 404.856 270.594 405.064 Q 270.463 405.168 270.346 405.259 Q 270.229 405.35 270.099 405.454 Q 269.995 405.559 269.865 405.663 Q 269.735 405.767 269.605 405.897 Q 269.397 406.105 269.137 406.313 Q 269.032 406.391 268.915 406.482 Q 268.798 406.573 268.668 406.677 Q 268.356 407.042 268.044 407.406 Q 267.732 407.77 267.419 408.186 Q 266.873 408.447 266.379 408.811 Q 265.91 409.149 265.286 409.435 Q 265.026 409.591 264.791 409.93 Q 264.583 410.242 264.193 410.372 Q 263.777 410.528 263.308 410.45 Q 262.84 410.372 262.528 410.216 Q 262.19 409.982 262.112 409.956 Q 261.903 409.904 261.851 409.904 Q 261.357 409.201 261.175 408.421 Q 261.071 408.004 260.954 407.588 Q 260.837 407.172 260.707 406.729 Q 260.602 406.469 260.55 406.183 Q 260.498 405.897 260.446 405.532 L 260.368 405.116 Q 260.342 405.012 260.316 404.895 Q 260.29 404.778 260.238 404.648 Q 260.134 404.388 260.03 404.101 Q 259.926 403.815 259.874 403.503 Q 259.77 402.879 259.796 402.28 Q 259.822 401.682 259.926 401.109 Q 260.238 399.392 260.837 397.831 Q 261.435 396.27 262.059 394.865 Q 262.19 394.214 262.346 393.876 Q 262.502 393.538 262.684 392.94 Q 262.918 392.653 263.048 392.107 Q 263.1 391.873 263.165 391.639 Q 263.23 391.404 263.308 391.17 Q 263.386 390.962 263.491 390.741 Q 263.595 390.52 263.699 390.26 Q 263.907 389.791 264.037 389.297 Q 264.219 388.698 264.323 388.256 Q 264.375 387.996 264.466 387.762 Q 264.557 387.528 264.661 387.32 Q 264.869 386.773 265.065 386.253 Q 265.26 385.732 265.442 385.238 Q 265.624 384.744 265.819 384.249 Q 266.014 383.755 266.222 383.261 Q 266.275 383.105 266.327 382.948 Q 266.379 382.792 266.431 382.636 Q 266.535 382.35 266.743 382.064 Q 266.873 381.699 267.003 381.517 Q 267.211 381.205 267.315 381.023 Q 267.315 380.737 267.497 380.633 Q 267.627 380.555 267.784 380.294 Q 268.07 379.852 268.174 379.462 Q 268.278 379.072 268.564 378.629 L 269.189 377.849 Q 269.241 377.745 269.293 377.641 Q 269.345 377.537 269.397 377.432 Q 269.527 377.224 269.709 377.068 Q 270.307 376.132 270.958 375.195 L 272.363 373.217 Q 272.831 372.489 273.404 371.838 Q 273.976 371.188 274.6 370.564 Q 274.809 370.303 275.095 369.991 Q 275.381 369.679 275.693 369.627 Q 276.188 369.575 276.734 369.731 Q 276.89 369.991 277.02 370.277 Q 277.15 370.564 277.254 370.928 Q 277.358 372.541 277.15 374.05 Q 276.942 375.559 276.682 377.016 Q 276.63 377.354 276.656 377.511 Q 276.682 377.667 276.63 378.005 Q 276.526 378.317 276.37 378.811 Q 276.214 379.306 276.11 379.722 Q 276.11 380.425 275.797 381.023 Q 275.485 381.595 275.381 382.168 Q 275.225 382.272 275.199 382.506 Q 275.173 382.74 275.017 382.844 Q 274.887 383.443 274.678 383.885 Q 274.444 384.353 274.288 384.822 Q 273.898 385.368 273.508 385.888 Q 273.117 386.409 272.701 386.929 Q 272.285 387.424 271.908 387.957 Q 271.53 388.49 271.166 389.037 Q 270.255 390.416 269.267 391.639 Q 268.278 392.861 267.367 394.24 Q 266.639 394.891 266.222 395.541 Q 265.78 396.244 265.026 396.842 Q 264.896 397.363 264.778 397.935 Q 264.661 398.507 264.531 399.106 Q 264.427 399.704 264.297 400.329 Q 264.167 400.953 264.037 401.578 Q 264.011 401.916 263.881 402.28 Q 263.829 402.462 263.777 402.631 Q 263.725 402.801 263.673 402.983 Q 263.569 403.347 263.621 403.867 Q 263.647 404.336 263.464 404.752 Q 263.543 404.96 263.595 405.35 Q 263.621 405.689 263.777 405.949 Q 264.063 406.417 264.401 406.417 Q 264.791 406.209 264.817 406.235 Q 264.843 406.261 264.974 406.209 Q 265.234 406.053 265.494 405.793 Q 265.754 405.532 265.962 405.324 Q 266.248 405.194 266.353 405.09 Q 266.431 405.012 266.639 404.856 Q 266.795 404.752 266.925 404.7 Q 267.055 404.648 267.159 404.544 Q 267.914 403.763 268.564 403.373 Q 269.241 402.983 269.657 402.41 L 270.594 401.838 Q 270.88 401.682 271.14 401.396 Q 271.374 401.109 271.738 400.953 Q 271.895 400.745 271.947 400.693 Q 271.999 400.641 272.155 400.433 Q 272.467 400.225 272.779 400.017 Q 273.091 399.808 273.378 399.6 Q 273.664 399.392 273.989 399.184 Q 274.314 398.976 274.652 398.768 Q 274.757 398.507 274.991 398.351 Q 275.225 398.195 275.381 398.039 Q 275.537 397.883 275.641 397.701 Q 275.771 397.493 276.005 397.467 Q 276.031 397.233 276.24 397.102 Q 276.448 396.972 276.578 396.738 Z M 273.768 377.328 L 273.716 377.328 Q 273.247 377.432 273.065 377.797 Q 272.883 378.161 272.727 378.629 Q 272.623 378.837 272.532 378.994 Q 272.441 379.15 272.389 379.254 Q 272.285 379.436 272.311 379.878 Q 271.504 381.205 270.776 382.597 Q 270.047 383.989 269.371 385.446 Q 268.72 386.903 268.044 388.373 Q 267.367 389.843 266.691 391.326 Q 267.758 390.26 268.642 388.829 Q 269.085 388.1 269.566 387.476 Q 270.047 386.851 270.542 386.331 Q 270.906 385.446 271.309 384.614 Q 271.712 383.781 272.155 383.026 Q 273.013 381.569 273.508 379.566 Q 273.3 378.916 273.56 378.447 Q 273.82 377.979 273.768 377.328 Z" transform="matrix(2.263411, 0, 0, 1.516993, -273.848816, -208.921875)" style="fill: rgb(125, 90, 80); line-height: 85.2575px; paint-order: stroke; stroke: url(#color-3); stroke-width: 7.93566px; white-space: pre;"/>
  <path d="M 277.621 404.908 Q 278.116 405.012 278.558 404.648 Q 279.026 404.258 279.443 404.023 Q 279.651 403.763 279.937 403.477 Q 280.223 403.191 280.535 402.983 Q 280.9 402.514 281.303 402.072 Q 281.706 401.63 282.149 401.213 Q 282.357 400.953 282.565 400.706 Q 282.773 400.459 282.981 400.225 Q 283.189 399.991 283.398 399.743 Q 283.606 399.496 283.814 399.236 Q 284.022 398.95 284.23 398.56 Q 284.308 398.403 284.399 398.247 Q 284.49 398.091 284.594 397.935 Q 284.881 397.467 285.193 397.102 Q 285.531 396.686 285.687 396.114 Q 285.895 395.776 286.234 395.593 Q 286.572 395.411 286.78 395.073 Q 286.91 394.917 287.04 394.605 Q 287.144 394.345 287.352 394.188 Q 287.56 394.032 287.587 393.928 Q 287.639 393.798 287.717 393.72 Q 287.873 393.434 288.107 393.252 Q 288.367 393.018 288.549 392.783 Q 289.2 392.263 289.486 391.977 Q 289.772 391.691 290.266 391.378 Q 291.203 391.066 292.166 391.17 Q 293.128 391.274 293.545 391.847 Q 293.571 392.185 293.623 392.51 Q 293.675 392.835 293.727 393.122 Q 293.857 393.746 293.545 394.657 Q 293.337 395.177 293.024 395.697 Q 292.738 396.166 292.556 396.738 L 292.348 397.05 Q 292.192 397.259 292.14 397.311 Q 291.645 398.716 291.047 400.043 Q 290.761 400.693 290.475 401.37 Q 290.188 402.046 289.902 402.722 Q 291.281 402.046 291.88 401.63 Q 292.218 401.396 292.582 401.174 Q 292.946 400.953 293.337 400.745 L 294.273 400.121 Q 294.507 399.965 294.755 399.808 Q 295.002 399.652 295.262 399.496 Q 295.678 398.976 296.199 398.638 Q 296.719 398.299 297.291 397.935 Q 297.656 397.571 298.02 397.337 Q 298.384 397.102 298.801 396.842 Q 298.931 396.738 299.061 396.634 Q 299.191 396.53 299.295 396.426 Q 299.607 396.166 299.789 396.062 L 300.179 395.645 Q 300.44 395.385 300.622 395.281 Q 301.09 395.099 301.558 394.813 Q 301.819 394.657 301.949 394.553 Q 302.131 394.397 302.391 394.292 L 302.755 393.798 Q 302.963 393.486 303.328 393.616 Q 303.458 393.46 303.718 393.46 Q 304.03 393.46 304.16 393.564 Q 304.16 393.746 304.238 393.876 Q 304.316 394.006 304.212 394.24 Q 303.952 394.423 303.744 394.631 Q 303.588 394.787 303.224 394.917 Q 302.573 395.619 302.053 395.958 Q 301.558 396.27 301.246 396.842 Q 300.362 397.727 299.425 398.612 Q 298.488 399.496 297.552 400.329 Q 297.265 400.329 296.979 400.537 Q 296.693 400.745 296.459 400.641 Q 296.147 400.511 295.938 401.057 Q 294.586 402.488 292.92 403.607 Q 291.906 404.674 290.579 405.506 Q 289.226 406.365 288.237 407.354 Q 288.133 408.369 287.691 409.357 Q 287.248 410.346 286.988 411.257 Q 286.78 411.699 286.637 412.089 Q 286.494 412.479 286.39 412.818 Q 286.182 413.52 285.843 414.119 Q 285.687 415.003 285.323 415.758 Q 284.959 416.512 284.542 417.241 Q 284.412 417.865 284.022 418.334 Q 283.658 418.776 283.345 419.478 Q 283.215 419.765 283.085 419.973 Q 282.955 420.181 282.825 420.467 Q 282.669 420.727 282.565 420.988 Q 282.461 421.248 282.305 421.508 L 282.097 421.742 Q 282.045 421.794 281.993 421.859 Q 281.94 421.924 281.888 421.976 L 281.264 423.069 Q 280.822 424.006 280.197 424.552 Q 279.859 424.838 279.521 425.177 Q 279.183 425.515 278.818 425.879 Q 278.584 426.113 278.376 426.399 Q 278.194 426.66 277.934 426.92 Q 277.595 427.258 277.413 427.414 Q 277.283 427.518 277.153 427.661 Q 277.023 427.804 276.893 427.96 Q 276.477 428.117 276.216 428.455 Q 275.956 428.793 275.696 429.157 Q 275.436 429.313 275.358 429.392 Q 275.28 429.47 275.02 429.626 Q 274.655 429.756 274.499 429.86 Q 274.317 429.99 274.291 429.99 Q 273.953 430.172 273.51 430.224 Q 273.068 430.276 272.782 430.51 Q 272.262 430.51 272.027 430.302 Q 271.793 430.094 271.585 429.834 Q 271.221 429.157 271.338 428.429 Q 271.455 427.7 271.689 426.894 Q 271.923 426.087 271.845 425.203 Q 272.131 424.37 272.158 423.798 Q 272.184 423.277 272.366 422.757 Q 272.756 422.106 272.782 421.924 Q 272.808 421.69 273.094 421.56 Q 273.146 421.222 273.25 421.04 Q 273.38 420.831 273.406 420.571 Q 273.563 420.467 273.667 420.311 Q 273.771 420.181 273.979 420.051 Q 274.239 419.53 274.447 419.088 Q 274.655 418.646 274.785 418.282 Q 274.915 417.917 275.085 417.553 Q 275.254 417.189 275.436 416.825 Q 275.514 416.616 275.579 416.421 Q 275.644 416.226 275.696 416.044 Q 275.748 415.862 275.813 415.693 Q 275.878 415.524 275.956 415.368 Q 276.19 414.847 276.659 414.223 L 277.517 413.078 Q 277.699 412.844 277.83 412.675 Q 277.96 412.505 278.012 412.401 Q 278.168 412.141 278.246 412.037 Q 278.688 411.725 278.636 411.647 Q 278.61 411.569 278.662 411.569 Q 279.365 410.866 280.015 410.32 Q 280.327 409.956 280.64 409.643 Q 280.952 409.331 281.368 409.071 Q 281.68 408.707 281.993 408.395 Q 282.305 408.082 282.721 407.822 Q 283.137 407.536 283.515 407.211 Q 283.892 406.885 284.23 406.547 Q 284.568 406.183 284.933 405.871 Q 285.297 405.559 285.687 405.272 Q 285.817 404.492 286.051 403.971 Q 286.286 403.477 286.416 402.722 Q 286.624 402.358 286.78 401.89 Q 286.936 401.422 287.04 401.005 Q 287.196 400.849 287.274 400.589 Q 287.378 400.225 287.456 400.017 Q 287.717 399.522 287.717 399.132 Q 287.769 398.716 287.769 398.586 Q 287.769 398.325 287.873 398.039 Q 287.925 397.675 287.925 397.311 Q 287.482 397.701 287.274 398.039 Q 287.014 398.455 286.728 398.82 Q 286.624 398.924 286.494 399.054 Q 286.364 399.184 286.312 399.444 Q 285.999 399.782 285.947 399.808 Q 285.843 399.834 285.843 399.965 Q 285.245 400.641 284.659 401.33 Q 284.074 402.02 283.476 402.749 Q 282.903 403.477 282.305 404.167 Q 281.706 404.856 281.108 405.532 Q 280.64 405.949 280.119 406.339 Q 279.599 406.729 279.026 407.146 Q 278.818 407.302 278.571 407.497 Q 278.324 407.692 278.038 407.9 Q 277.439 408.342 276.633 408.082 Q 275.436 408.551 274.681 407.9 Q 273.927 407.25 273.51 406.469 Q 273.302 406.157 273.172 405.923 Q 273.042 405.689 273.094 405.116 Q 273.146 404.83 273.211 404.531 Q 273.276 404.232 273.354 403.945 Q 273.432 403.659 273.497 403.321 Q 273.563 402.983 273.615 402.618 Q 273.667 402.332 273.719 402.046 Q 273.771 401.76 273.797 401.474 Q 273.875 400.927 274.031 400.277 Q 274.187 399.548 274.447 398.872 Q 274.707 398.195 275.072 397.727 Q 275.202 397.337 275.332 396.959 Q 275.462 396.582 275.566 396.244 Q 275.696 395.88 275.813 395.528 Q 275.93 395.177 276.06 394.813 Q 276.32 393.98 276.685 393.2 Q 277.049 392.419 277.465 391.691 Q 277.725 391.326 277.96 391.04 Q 278.194 390.754 278.454 390.442 Q 278.974 390.39 279.287 390.26 Q 279.599 390.13 279.911 389.973 Q 280.093 389.921 280.275 389.869 Q 280.457 389.817 280.64 389.791 Q 280.822 389.739 280.991 389.7 Q 281.16 389.661 281.316 389.609 Q 281.888 389.349 282.045 389.375 Q 282.175 389.401 282.305 389.245 Q 282.409 389.505 282.617 389.583 Q 282.851 389.661 282.877 389.921 Q 282.877 390.286 282.591 390.806 Q 282.331 391.3 282.201 391.587 Q 282.097 391.769 281.993 391.977 Q 281.888 392.185 281.784 392.419 Q 281.576 392.913 281.316 393.252 Q 281.264 393.486 281.199 393.72 Q 281.134 393.954 281.03 394.162 Q 280.926 394.371 280.848 394.605 Q 280.77 394.839 280.692 395.073 Q 280.171 395.645 279.781 396.374 Q 279.391 397.102 278.974 397.935 Q 278.87 398.195 278.74 398.403 Q 278.636 398.586 278.506 398.872 Q 278.454 399.106 278.415 399.34 Q 278.376 399.574 278.324 399.808 Q 278.298 400.043 278.246 400.277 Q 278.194 400.511 278.142 400.745 Q 277.934 401.291 277.83 401.942 Q 277.725 402.67 277.673 403.399 Q 277.621 404.127 277.621 404.908 Z M 285.063 409.383 L 285.011 409.383 Q 283.996 410.034 283.189 410.866 Q 282.799 411.283 282.396 411.686 Q 281.993 412.089 281.576 412.505 Q 281.394 412.714 281.212 412.909 Q 281.03 413.104 280.848 413.312 Q 280.457 413.754 280.171 414.171 Q 279.911 414.639 279.625 415.133 Q 279.339 415.628 278.922 416.044 Q 278.272 416.642 278.142 416.955 Q 278.064 417.137 277.986 417.28 Q 277.908 417.423 277.83 417.553 L 277.439 418.36 Q 277.335 418.542 277.231 418.737 Q 277.127 418.932 276.997 419.114 Q 276.763 419.556 276.529 420.155 Q 276.294 420.753 276.06 421.196 Q 275.696 422.132 275.488 422.991 Q 275.28 423.85 275.332 424.734 L 275.332 425.124 Q 275.332 425.281 275.488 425.411 Q 275.722 425.411 276.268 425.203 Q 276.685 424.838 277.075 424.474 Q 277.465 424.11 277.83 423.693 Q 278.558 422.861 279.391 422.028 Q 280.119 421.196 280.692 420.233 Q 281.264 419.27 281.68 418.073 Q 281.836 417.787 281.967 417.488 Q 282.097 417.189 282.201 416.851 Q 282.383 416.226 282.721 415.68 Q 283.007 414.847 283.306 414.041 Q 283.606 413.234 283.918 412.479 Q 284.594 410.866 285.063 409.383 Z" transform="matrix(2.263411, 0, 0, 1.516993, -273.848816, -208.921875)" style="fill: rgb(125, 90, 80); line-height: 85.2575px; paint-order: stroke; stroke: url(#color-3); stroke-width: 7.93566px; white-space: pre;"/>
</svg>